Coordinates
version=1
nRows=27
nColumns=12
inDegrees=yes

Units are S.I. units (second, meters, Newtons, ...)
Angles are in degrees

endheader
time	SC_y	SC_z	SC_x	AC_y	AC_z	AC_x	GH_y	GH_z	GH_yy	EL_x	PS_y
       0.0              -45.58          27.31          13.54          38.81          1.039         -14.55         -116.8          22.72         -165.3          47.29          137.8
   0.04225              -45.58          27.31          13.55          38.81          1.038         -14.55         -116.8          22.72         -165.3           47.3          137.8
    0.0845              -45.57          27.31          13.55          38.81          1.037         -14.55         -116.8          22.72         -165.2          47.32          137.8
    0.1267              -45.57          27.31          13.55          38.81          1.036         -14.55         -116.8          22.72         -165.2          47.33          137.8
     0.169              -45.57          27.31          13.56          38.81          1.035         -14.55         -116.8          22.72         -165.1          47.34          137.8
    0.2112              -45.56          27.31          13.56          38.81          1.034         -14.55         -116.8          22.72         -165.1          47.36          137.7
    0.2535              -45.56          27.31          13.56          38.81          1.033         -14.55         -116.8          22.72         -165.0          47.37          137.7
    0.2957              -45.56           27.3          13.57          38.81          1.032         -14.55         -116.8          22.72         -164.9          47.39          137.7
     0.338              -45.55           27.3          13.57          38.82           1.03         -14.55         -116.8          22.72         -164.9          47.41          137.7
    0.3802              -45.55           27.3          13.58          38.82          1.029         -14.55         -116.7          22.72         -164.8          47.43          137.7
    0.4225              -45.54           27.3          13.58          38.82          1.027         -14.55         -116.7          22.72         -164.7          47.45          137.7
    0.4647              -45.54           27.3          13.59          38.82          1.026         -14.55         -116.7          22.72         -164.6          47.47          137.7
     0.507              -45.53           27.3          13.59          38.82          1.024         -14.55         -116.7          22.72         -164.6           47.5          137.7
    0.5492              -45.52           27.3           13.6          38.82          1.022         -14.55         -116.7          22.72         -164.5          47.52          137.7
    0.5915              -45.52           27.3          13.61          38.82           1.02         -14.56         -116.7          22.72         -164.4          47.55          137.7
    0.6337              -45.51           27.3          13.61          38.82          1.018         -14.56         -116.6          22.72         -164.2          47.58          137.6
     0.676               -45.5           27.3          13.62          38.82          1.016         -14.56         -116.6          22.72         -164.1          47.61          137.6
    0.7182              -45.49           27.3          13.63          38.82          1.013         -14.56         -116.6          22.72         -164.0          47.65          137.6
    0.7605              -45.48           27.3          13.64          38.82           1.01         -14.56         -116.6          22.72         -163.8          47.69          137.6
    0.8027              -45.47           27.3          13.65          38.82          1.007         -14.56         -116.5          22.72         -163.7          47.73          137.6
     0.845              -45.46           27.3          13.67          38.82          1.004         -14.56         -116.5          22.72         -163.5          47.78          137.6
    0.8872              -45.45           27.3          13.68          38.82         0.9999         -14.56         -116.5          22.72         -163.3          47.83          137.5
    0.9295              -45.43           27.3          13.69          38.82         0.9957         -14.56         -116.4          22.72         -163.1          47.89          137.5
    0.9717              -45.42           27.3          13.71          38.82         0.9911         -14.56         -116.4          22.72         -162.9          47.96          137.5
     1.014               -45.4           27.3          13.73          38.82          0.986         -14.56         -116.4          22.72         -162.6          48.03          137.4
     1.056              -45.38           27.3          13.75          38.83         0.9803         -14.56         -116.3          22.72         -162.3          48.11          137.4
     1.098              -45.36           27.3          13.77          38.83         0.9739         -14.56         -116.2          22.72         -162.0           48.2          137.4
